<mxfile host="www.draw.io" modified="2023-03-30T14:24:40.098Z" agent="Mozilla/5.0 (Windows NT 10.0; Win64; x64; rv:109.0) Gecko/20100101 Firefox/111.0" etag="M1-H4abyRqwkzfojrePE" version="21.1.2" type="device">
  <diagram name="Side-1" id="yNfRaHSVCuGR44uHi-wh">
    <mxGraphModel dx="2599" dy="739" grid="1" gridSize="10" guides="1" tooltips="1" connect="1" arrows="1" fold="1" page="1" pageScale="1" pageWidth="1169" pageHeight="827" math="0" shadow="0">
      <root>
        <mxCell id="0" />
        <mxCell id="1" parent="0" />
        <mxCell id="9loAOh5dhfeu6k45An3E-3" style="edgeStyle=orthogonalEdgeStyle;rounded=0;orthogonalLoop=1;jettySize=auto;html=1;entryX=0.5;entryY=0;entryDx=0;entryDy=0;" parent="1" source="9loAOh5dhfeu6k45An3E-1" target="9loAOh5dhfeu6k45An3E-2" edge="1">
          <mxGeometry relative="1" as="geometry" />
        </mxCell>
        <mxCell id="9loAOh5dhfeu6k45An3E-1" value="Programmet starter" style="rounded=0;whiteSpace=wrap;html=1;" parent="1" vertex="1">
          <mxGeometry x="380" y="20" width="120" height="60" as="geometry" />
        </mxCell>
        <mxCell id="9loAOh5dhfeu6k45An3E-2" value="tjekker cellerne" style="rounded=0;whiteSpace=wrap;html=1;" parent="1" vertex="1">
          <mxGeometry x="380" y="120" width="120" height="60" as="geometry" />
        </mxCell>
        <mxCell id="9loAOh5dhfeu6k45An3E-4" value="Er Jord" style="rounded=0;whiteSpace=wrap;html=1;" parent="1" vertex="1">
          <mxGeometry x="130" y="269" width="60" height="30" as="geometry" />
        </mxCell>
        <mxCell id="9loAOh5dhfeu6k45An3E-7" value="" style="endArrow=classic;html=1;rounded=0;exitX=0.5;exitY=1;exitDx=0;exitDy=0;entryX=0.5;entryY=0;entryDx=0;entryDy=0;" parent="1" source="9loAOh5dhfeu6k45An3E-2" target="9loAOh5dhfeu6k45An3E-4" edge="1">
          <mxGeometry width="50" height="50" relative="1" as="geometry">
            <mxPoint x="310" y="400" as="sourcePoint" />
            <mxPoint x="360" y="350" as="targetPoint" />
            <Array as="points">
              <mxPoint x="440" y="210" />
              <mxPoint x="160" y="210" />
            </Array>
          </mxGeometry>
        </mxCell>
        <mxCell id="9loAOh5dhfeu6k45An3E-8" value="Græs" style="rounded=0;whiteSpace=wrap;html=1;" parent="1" vertex="1">
          <mxGeometry x="-20" y="384" width="60" height="30" as="geometry" />
        </mxCell>
        <mxCell id="9loAOh5dhfeu6k45An3E-10" value="50/50" style="rhombus;whiteSpace=wrap;html=1;" parent="1" vertex="1">
          <mxGeometry x="40" y="329" width="40" height="40" as="geometry" />
        </mxCell>
        <mxCell id="9loAOh5dhfeu6k45An3E-11" value="Har 3 græs naboer" style="endArrow=none;html=1;rounded=0;exitX=0;exitY=0.5;exitDx=0;exitDy=0;entryX=0.5;entryY=0;entryDx=0;entryDy=0;" parent="1" source="9loAOh5dhfeu6k45An3E-4" target="9loAOh5dhfeu6k45An3E-10" edge="1">
          <mxGeometry x="0.4074" width="50" height="50" relative="1" as="geometry">
            <mxPoint x="160" y="409" as="sourcePoint" />
            <mxPoint x="210" y="359" as="targetPoint" />
            <Array as="points">
              <mxPoint x="60" y="284" />
            </Array>
            <mxPoint as="offset" />
          </mxGeometry>
        </mxCell>
        <mxCell id="9loAOh5dhfeu6k45An3E-12" value="Groende Græs" style="rounded=0;whiteSpace=wrap;html=1;" parent="1" vertex="1">
          <mxGeometry x="90" y="384" width="60" height="30" as="geometry" />
        </mxCell>
        <mxCell id="9loAOh5dhfeu6k45An3E-14" value="Bliver til" style="edgeStyle=orthogonalEdgeStyle;rounded=0;orthogonalLoop=1;jettySize=auto;html=1;entryX=0.5;entryY=0;entryDx=0;entryDy=0;exitX=1;exitY=0.5;exitDx=0;exitDy=0;" parent="1" source="9loAOh5dhfeu6k45An3E-10" target="9loAOh5dhfeu6k45An3E-12" edge="1">
          <mxGeometry x="-0.1429" relative="1" as="geometry">
            <mxPoint x="50" y="359" as="sourcePoint" />
            <mxPoint x="10" y="389" as="targetPoint" />
            <Array as="points">
              <mxPoint x="120" y="349" />
            </Array>
            <mxPoint as="offset" />
          </mxGeometry>
        </mxCell>
        <mxCell id="9loAOh5dhfeu6k45An3E-23" value="Bliver til" style="endArrow=classic;html=1;rounded=0;exitX=0;exitY=0.5;exitDx=0;exitDy=0;entryX=0.5;entryY=0;entryDx=0;entryDy=0;" parent="1" source="9loAOh5dhfeu6k45An3E-10" target="9loAOh5dhfeu6k45An3E-8" edge="1">
          <mxGeometry width="50" height="50" relative="1" as="geometry">
            <mxPoint x="240" y="389" as="sourcePoint" />
            <mxPoint x="290" y="339" as="targetPoint" />
            <Array as="points">
              <mxPoint x="10" y="349" />
            </Array>
          </mxGeometry>
        </mxCell>
        <mxCell id="9loAOh5dhfeu6k45An3E-24" value="Vand" style="rounded=0;whiteSpace=wrap;html=1;" parent="1" vertex="1">
          <mxGeometry x="180" y="384" width="60" height="30" as="geometry" />
        </mxCell>
        <mxCell id="9loAOh5dhfeu6k45An3E-25" value="50/50" style="rhombus;whiteSpace=wrap;html=1;" parent="1" vertex="1">
          <mxGeometry x="240" y="329" width="40" height="40" as="geometry" />
        </mxCell>
        <mxCell id="9loAOh5dhfeu6k45An3E-26" value="Har 3 vand naboer" style="endArrow=none;html=1;rounded=0;exitX=1;exitY=0.5;exitDx=0;exitDy=0;entryX=0.5;entryY=0;entryDx=0;entryDy=0;" parent="1" source="9loAOh5dhfeu6k45An3E-4" target="9loAOh5dhfeu6k45An3E-25" edge="1">
          <mxGeometry x="0.4074" width="50" height="50" relative="1" as="geometry">
            <mxPoint x="160" y="284" as="sourcePoint" />
            <mxPoint x="340" y="424" as="targetPoint" />
            <Array as="points">
              <mxPoint x="260" y="284" />
            </Array>
            <mxPoint as="offset" />
          </mxGeometry>
        </mxCell>
        <mxCell id="9loAOh5dhfeu6k45An3E-27" value="spredende Vand" style="rounded=0;whiteSpace=wrap;html=1;" parent="1" vertex="1">
          <mxGeometry x="290" y="384" width="60" height="30" as="geometry" />
        </mxCell>
        <mxCell id="9loAOh5dhfeu6k45An3E-28" value="Bliver til" style="edgeStyle=orthogonalEdgeStyle;rounded=0;orthogonalLoop=1;jettySize=auto;html=1;entryX=0.5;entryY=0;entryDx=0;entryDy=0;exitX=1;exitY=0.5;exitDx=0;exitDy=0;" parent="1" source="9loAOh5dhfeu6k45An3E-25" target="9loAOh5dhfeu6k45An3E-27" edge="1">
          <mxGeometry x="-0.1429" relative="1" as="geometry">
            <mxPoint x="250" y="359" as="sourcePoint" />
            <mxPoint x="210" y="389" as="targetPoint" />
            <Array as="points">
              <mxPoint x="320" y="349" />
            </Array>
            <mxPoint as="offset" />
          </mxGeometry>
        </mxCell>
        <mxCell id="9loAOh5dhfeu6k45An3E-29" value="Bliver til" style="endArrow=classic;html=1;rounded=0;exitX=0;exitY=0.5;exitDx=0;exitDy=0;entryX=0.5;entryY=0;entryDx=0;entryDy=0;" parent="1" source="9loAOh5dhfeu6k45An3E-25" target="9loAOh5dhfeu6k45An3E-24" edge="1">
          <mxGeometry width="50" height="50" relative="1" as="geometry">
            <mxPoint x="440" y="389" as="sourcePoint" />
            <mxPoint x="490" y="339" as="targetPoint" />
            <Array as="points">
              <mxPoint x="210" y="349" />
            </Array>
          </mxGeometry>
        </mxCell>
        <mxCell id="9loAOh5dhfeu6k45An3E-33" value="Under 2 græs naboer" style="endArrow=classic;html=1;rounded=0;exitX=0;exitY=0.5;exitDx=0;exitDy=0;entryX=0.5;entryY=0;entryDx=0;entryDy=0;" parent="1" source="S-4CXqmR6mleJ9AHoKBr-5" target="9loAOh5dhfeu6k45An3E-35" edge="1">
          <mxGeometry x="0.2941" y="-20" width="50" height="50" relative="1" as="geometry">
            <mxPoint x="450.00000000000045" y="435" as="sourcePoint" />
            <mxPoint x="430" y="500" as="targetPoint" />
            <Array as="points">
              <mxPoint x="410" y="380" />
            </Array>
            <mxPoint as="offset" />
          </mxGeometry>
        </mxCell>
        <mxCell id="9loAOh5dhfeu6k45An3E-34" value="Over 3 græs naboer" style="endArrow=classic;html=1;rounded=0;exitX=1;exitY=0.5;exitDx=0;exitDy=0;entryX=0.5;entryY=0;entryDx=0;entryDy=0;" parent="1" source="S-4CXqmR6mleJ9AHoKBr-5" target="9loAOh5dhfeu6k45An3E-37" edge="1">
          <mxGeometry x="0.2941" y="10" width="50" height="50" relative="1" as="geometry">
            <mxPoint x="510.00000000000045" y="435" as="sourcePoint" />
            <mxPoint x="530" y="460" as="targetPoint" />
            <Array as="points">
              <mxPoint x="530" y="380" />
            </Array>
            <mxPoint as="offset" />
          </mxGeometry>
        </mxCell>
        <mxCell id="9loAOh5dhfeu6k45An3E-35" value="Bliver til Jord" style="rounded=0;whiteSpace=wrap;html=1;" parent="1" vertex="1">
          <mxGeometry x="380" y="459" width="60" height="30" as="geometry" />
        </mxCell>
        <mxCell id="9loAOh5dhfeu6k45An3E-37" value="Bliver til Græs" style="rounded=0;whiteSpace=wrap;html=1;" parent="1" vertex="1">
          <mxGeometry x="500" y="459" width="60" height="30" as="geometry" />
        </mxCell>
        <mxCell id="9loAOh5dhfeu6k45An3E-39" value="Under 2 vand naboer" style="endArrow=classic;html=1;rounded=0;exitX=0;exitY=0.5;exitDx=0;exitDy=0;entryX=0.5;entryY=0;entryDx=0;entryDy=0;" parent="1" target="9loAOh5dhfeu6k45An3E-41" edge="1">
          <mxGeometry x="0.2941" y="-20" width="50" height="50" relative="1" as="geometry">
            <mxPoint x="860.0000000000005" y="334" as="sourcePoint" />
            <mxPoint x="840" y="399" as="targetPoint" />
            <Array as="points">
              <mxPoint x="840" y="334" />
            </Array>
            <mxPoint as="offset" />
          </mxGeometry>
        </mxCell>
        <mxCell id="9loAOh5dhfeu6k45An3E-40" value="Over 3 vand naboer" style="endArrow=classic;html=1;rounded=0;exitX=1;exitY=0.5;exitDx=0;exitDy=0;entryX=0.5;entryY=0;entryDx=0;entryDy=0;" parent="1" target="9loAOh5dhfeu6k45An3E-42" edge="1">
          <mxGeometry x="0.2941" y="10" width="50" height="50" relative="1" as="geometry">
            <mxPoint x="920.0000000000005" y="334" as="sourcePoint" />
            <mxPoint x="940" y="359" as="targetPoint" />
            <Array as="points">
              <mxPoint x="940" y="334" />
            </Array>
            <mxPoint as="offset" />
          </mxGeometry>
        </mxCell>
        <mxCell id="9loAOh5dhfeu6k45An3E-41" value="Bliver til Jord" style="rounded=0;whiteSpace=wrap;html=1;" parent="1" vertex="1">
          <mxGeometry x="810" y="399" width="60" height="30" as="geometry" />
        </mxCell>
        <mxCell id="9loAOh5dhfeu6k45An3E-42" value="Bliver til Vand" style="rounded=0;whiteSpace=wrap;html=1;" parent="1" vertex="1">
          <mxGeometry x="910" y="399" width="60" height="30" as="geometry" />
        </mxCell>
        <mxCell id="S-4CXqmR6mleJ9AHoKBr-18" value="" style="edgeStyle=orthogonalEdgeStyle;rounded=0;orthogonalLoop=1;jettySize=auto;html=1;" edge="1" parent="1" source="S-4CXqmR6mleJ9AHoKBr-1" target="S-4CXqmR6mleJ9AHoKBr-3">
          <mxGeometry relative="1" as="geometry" />
        </mxCell>
        <mxCell id="S-4CXqmR6mleJ9AHoKBr-19" style="edgeStyle=orthogonalEdgeStyle;rounded=0;orthogonalLoop=1;jettySize=auto;html=1;entryX=0.5;entryY=0;entryDx=0;entryDy=0;" edge="1" parent="1" source="S-4CXqmR6mleJ9AHoKBr-1" target="S-4CXqmR6mleJ9AHoKBr-4">
          <mxGeometry relative="1" as="geometry" />
        </mxCell>
        <mxCell id="S-4CXqmR6mleJ9AHoKBr-1" value="Er ikke Jord" style="rounded=0;whiteSpace=wrap;html=1;" vertex="1" parent="1">
          <mxGeometry x="710" y="280" width="60" height="30" as="geometry" />
        </mxCell>
        <mxCell id="S-4CXqmR6mleJ9AHoKBr-3" value="Er ikke Vand" style="rounded=0;whiteSpace=wrap;html=1;" vertex="1" parent="1">
          <mxGeometry x="550" y="324" width="70" height="35" as="geometry" />
        </mxCell>
        <mxCell id="S-4CXqmR6mleJ9AHoKBr-4" value="Er Vand" style="rounded=0;whiteSpace=wrap;html=1;" vertex="1" parent="1">
          <mxGeometry x="855" y="315" width="70" height="35" as="geometry" />
        </mxCell>
        <mxCell id="S-4CXqmR6mleJ9AHoKBr-5" value="Har vand naboer" style="rounded=0;whiteSpace=wrap;html=1;" vertex="1" parent="1">
          <mxGeometry x="433" y="359" width="82" height="41" as="geometry" />
        </mxCell>
        <mxCell id="S-4CXqmR6mleJ9AHoKBr-6" value="Har ikke vand naboer" style="rounded=0;whiteSpace=wrap;html=1;" vertex="1" parent="1">
          <mxGeometry x="640" y="359" width="82" height="41" as="geometry" />
        </mxCell>
        <mxCell id="S-4CXqmR6mleJ9AHoKBr-8" value="Bliver til Jord" style="rounded=0;whiteSpace=wrap;html=1;" vertex="1" parent="1">
          <mxGeometry x="590" y="470" width="60" height="30" as="geometry" />
        </mxCell>
        <mxCell id="S-4CXqmR6mleJ9AHoKBr-9" value="Bliver til Vand" style="rounded=0;whiteSpace=wrap;html=1;" vertex="1" parent="1">
          <mxGeometry x="710" y="470" width="60" height="30" as="geometry" />
        </mxCell>
        <mxCell id="S-4CXqmR6mleJ9AHoKBr-10" value="Under 2 vand naboer" style="endArrow=classic;html=1;rounded=0;exitX=0;exitY=0.5;exitDx=0;exitDy=0;entryX=0.5;entryY=0;entryDx=0;entryDy=0;" edge="1" parent="1" source="S-4CXqmR6mleJ9AHoKBr-6" target="S-4CXqmR6mleJ9AHoKBr-8">
          <mxGeometry x="0.2941" y="-20" width="50" height="50" relative="1" as="geometry">
            <mxPoint x="680.0000000000005" y="405" as="sourcePoint" />
            <mxPoint x="660" y="470" as="targetPoint" />
            <Array as="points">
              <mxPoint x="620" y="380" />
            </Array>
            <mxPoint as="offset" />
          </mxGeometry>
        </mxCell>
        <mxCell id="S-4CXqmR6mleJ9AHoKBr-12" value="Over 3 vand naboer" style="endArrow=classic;html=1;rounded=0;exitX=1;exitY=0.5;exitDx=0;exitDy=0;entryX=0.5;entryY=0;entryDx=0;entryDy=0;" edge="1" parent="1" source="S-4CXqmR6mleJ9AHoKBr-6" target="S-4CXqmR6mleJ9AHoKBr-9">
          <mxGeometry x="0.2941" y="10" width="50" height="50" relative="1" as="geometry">
            <mxPoint x="800.0000000000005" y="459" as="sourcePoint" />
            <mxPoint x="820" y="524" as="targetPoint" />
            <Array as="points">
              <mxPoint x="740" y="380" />
            </Array>
            <mxPoint as="offset" />
          </mxGeometry>
        </mxCell>
        <mxCell id="S-4CXqmR6mleJ9AHoKBr-14" value="" style="endArrow=classic;html=1;rounded=0;entryX=0.5;entryY=0;entryDx=0;entryDy=0;" edge="1" parent="1" target="S-4CXqmR6mleJ9AHoKBr-1">
          <mxGeometry width="50" height="50" relative="1" as="geometry">
            <mxPoint x="440" y="210" as="sourcePoint" />
            <mxPoint x="670" y="340" as="targetPoint" />
            <Array as="points">
              <mxPoint x="740" y="210" />
            </Array>
          </mxGeometry>
        </mxCell>
        <mxCell id="S-4CXqmR6mleJ9AHoKBr-15" value="" style="endArrow=classic;html=1;rounded=0;exitX=0;exitY=0.5;exitDx=0;exitDy=0;entryX=0.5;entryY=0;entryDx=0;entryDy=0;" edge="1" parent="1" source="S-4CXqmR6mleJ9AHoKBr-3" target="S-4CXqmR6mleJ9AHoKBr-5">
          <mxGeometry width="50" height="50" relative="1" as="geometry">
            <mxPoint x="620" y="390" as="sourcePoint" />
            <mxPoint x="670" y="340" as="targetPoint" />
            <Array as="points">
              <mxPoint x="474" y="340" />
            </Array>
          </mxGeometry>
        </mxCell>
        <mxCell id="S-4CXqmR6mleJ9AHoKBr-16" value="" style="endArrow=classic;html=1;rounded=0;exitX=1;exitY=0.5;exitDx=0;exitDy=0;entryX=0.5;entryY=0;entryDx=0;entryDy=0;" edge="1" parent="1" source="S-4CXqmR6mleJ9AHoKBr-3" target="S-4CXqmR6mleJ9AHoKBr-6">
          <mxGeometry width="50" height="50" relative="1" as="geometry">
            <mxPoint x="620" y="390" as="sourcePoint" />
            <mxPoint x="670" y="340" as="targetPoint" />
            <Array as="points">
              <mxPoint x="680" y="340" />
            </Array>
          </mxGeometry>
        </mxCell>
        <mxCell id="S-4CXqmR6mleJ9AHoKBr-20" value="" style="endArrow=classic;html=1;rounded=0;exitX=0.5;exitY=1;exitDx=0;exitDy=0;entryX=0;entryY=0.5;entryDx=0;entryDy=0;" edge="1" parent="1" source="9loAOh5dhfeu6k45An3E-27" target="9loAOh5dhfeu6k45An3E-2">
          <mxGeometry width="50" height="50" relative="1" as="geometry">
            <mxPoint x="260" y="600" as="sourcePoint" />
            <mxPoint x="310" y="550" as="targetPoint" />
            <Array as="points">
              <mxPoint x="320" y="520" />
              <mxPoint x="-80" y="520" />
              <mxPoint x="-80" y="150" />
            </Array>
          </mxGeometry>
        </mxCell>
        <mxCell id="S-4CXqmR6mleJ9AHoKBr-21" value="" style="endArrow=none;html=1;rounded=0;entryX=0.5;entryY=1;entryDx=0;entryDy=0;" edge="1" parent="1" target="9loAOh5dhfeu6k45An3E-24">
          <mxGeometry width="50" height="50" relative="1" as="geometry">
            <mxPoint x="210" y="520" as="sourcePoint" />
            <mxPoint x="550" y="400" as="targetPoint" />
          </mxGeometry>
        </mxCell>
        <mxCell id="S-4CXqmR6mleJ9AHoKBr-22" value="" style="endArrow=none;html=1;rounded=0;entryX=0.5;entryY=1;entryDx=0;entryDy=0;" edge="1" parent="1" target="9loAOh5dhfeu6k45An3E-12">
          <mxGeometry width="50" height="50" relative="1" as="geometry">
            <mxPoint x="120" y="520" as="sourcePoint" />
            <mxPoint x="140" y="440" as="targetPoint" />
          </mxGeometry>
        </mxCell>
        <mxCell id="S-4CXqmR6mleJ9AHoKBr-23" value="" style="endArrow=none;html=1;rounded=0;entryX=0.5;entryY=1;entryDx=0;entryDy=0;" edge="1" parent="1" target="9loAOh5dhfeu6k45An3E-8">
          <mxGeometry width="50" height="50" relative="1" as="geometry">
            <mxPoint x="10" y="520" as="sourcePoint" />
            <mxPoint x="550" y="400" as="targetPoint" />
          </mxGeometry>
        </mxCell>
        <mxCell id="S-4CXqmR6mleJ9AHoKBr-25" value="" style="endArrow=classic;html=1;rounded=0;exitX=0.5;exitY=1;exitDx=0;exitDy=0;entryX=1;entryY=0.5;entryDx=0;entryDy=0;" edge="1" parent="1" source="9loAOh5dhfeu6k45An3E-35" target="9loAOh5dhfeu6k45An3E-2">
          <mxGeometry width="50" height="50" relative="1" as="geometry">
            <mxPoint x="450" y="680" as="sourcePoint" />
            <mxPoint x="500" y="630" as="targetPoint" />
            <Array as="points">
              <mxPoint x="410" y="520" />
              <mxPoint x="1040" y="520" />
              <mxPoint x="1040" y="150" />
            </Array>
          </mxGeometry>
        </mxCell>
        <mxCell id="S-4CXqmR6mleJ9AHoKBr-26" value="" style="endArrow=none;html=1;rounded=0;entryX=0.5;entryY=1;entryDx=0;entryDy=0;" edge="1" parent="1" target="9loAOh5dhfeu6k45An3E-37">
          <mxGeometry width="50" height="50" relative="1" as="geometry">
            <mxPoint x="530" y="520" as="sourcePoint" />
            <mxPoint x="550" y="400" as="targetPoint" />
          </mxGeometry>
        </mxCell>
        <mxCell id="S-4CXqmR6mleJ9AHoKBr-27" value="" style="endArrow=none;html=1;rounded=0;entryX=0.5;entryY=1;entryDx=0;entryDy=0;" edge="1" parent="1" target="S-4CXqmR6mleJ9AHoKBr-8">
          <mxGeometry width="50" height="50" relative="1" as="geometry">
            <mxPoint x="620" y="520" as="sourcePoint" />
            <mxPoint x="540" y="499" as="targetPoint" />
          </mxGeometry>
        </mxCell>
        <mxCell id="S-4CXqmR6mleJ9AHoKBr-28" value="" style="endArrow=none;html=1;rounded=0;exitX=0.5;exitY=1;exitDx=0;exitDy=0;" edge="1" parent="1" source="S-4CXqmR6mleJ9AHoKBr-9">
          <mxGeometry width="50" height="50" relative="1" as="geometry">
            <mxPoint x="550" y="540" as="sourcePoint" />
            <mxPoint x="740" y="520" as="targetPoint" />
          </mxGeometry>
        </mxCell>
        <mxCell id="S-4CXqmR6mleJ9AHoKBr-29" value="" style="endArrow=none;html=1;rounded=0;entryX=0.5;entryY=1;entryDx=0;entryDy=0;" edge="1" parent="1" target="9loAOh5dhfeu6k45An3E-41">
          <mxGeometry width="50" height="50" relative="1" as="geometry">
            <mxPoint x="840" y="520" as="sourcePoint" />
            <mxPoint x="560" y="519" as="targetPoint" />
          </mxGeometry>
        </mxCell>
        <mxCell id="S-4CXqmR6mleJ9AHoKBr-30" value="" style="endArrow=none;html=1;rounded=0;entryX=0.5;entryY=1;entryDx=0;entryDy=0;" edge="1" parent="1" target="9loAOh5dhfeu6k45An3E-42">
          <mxGeometry width="50" height="50" relative="1" as="geometry">
            <mxPoint x="940" y="520" as="sourcePoint" />
            <mxPoint x="570" y="529" as="targetPoint" />
          </mxGeometry>
        </mxCell>
      </root>
    </mxGraphModel>
  </diagram>
</mxfile>
